# xmcd CD database file
#
# Track frame offsets:
#	150
#	19015
#	44228
#	99312
#	129759
#	165053
#	196731
#
# Disc length: 3025 seconds
#
# Revision: 0
# Processed by: cddbd v1.4PL0 Copyright (c) Steve Scherf et al.
# Submitted via: CDex 1.50beta9
#
DISCID=480bcf07
DTITLE=Riccardo Tesi, Patrick Vaillant, Gianluigi Trovesi - Colline
DYEAR=1900
DGENRE=Jazz
TTITLE0=Maicena dansa
TTITLE1=Il Funambolo
TTITLE2=Promenade
TTITLE3=Li Barquetas de Sant Joan
TTITLE4=Tarantella rouge et noire
TTITLE5=Romance
TTITLE6=Mazurcazione
EXTD=
EXTT0=
EXTT1=
EXTT2=
EXTT3=
EXTT4=
EXTT5=
EXTT6=
PLAYORDER=
